<svg xmlns="http://www.w3.org/2000/svg" viewBox="0 0 500 90" fill="none">
  <rect width="500" height="90" fill="#0d47a1"/>
  <rect width="500" height="90" fill="url(#bg)"/>
  <defs>
    <linearGradient id="bg" x1="0" y1="0" x2="1" y2="1">
      <stop offset="0%" stop-color="#0d47a1"/>
      <stop offset="30%" stop-color="#1a237e"/>
      <stop offset="60%" stop-color="#4a148c"/>
      <stop offset="100%" stop-color="#1565c0"/>
    </linearGradient>
  </defs>
  <line x1="20" y1="25" x2="180" y2="25" stroke="rgba(255,255,255,0.1)" stroke-width="1"/>
  <line x1="20" y1="45" x2="180" y2="45" stroke="rgba(255,255,255,0.1)" stroke-width="1"/>
  <line x1="20" y1="65" x2="180" y2="65" stroke="rgba(255,255,255,0.1)" stroke-width="1"/>
  <rect x="55" y="17" width="16" height="16" rx="2" fill="rgba(180,197,255,0.2)" stroke="rgba(180,197,255,0.4)"/>
  <text x="63" y="29" text-anchor="middle" fill="rgba(180,197,255,0.6)" font-size="8" font-family="sans-serif">H</text>
  <rect x="100" y="37" width="16" height="16" rx="2" fill="rgba(180,197,255,0.2)" stroke="rgba(180,197,255,0.4)"/>
  <text x="108" y="49" text-anchor="middle" fill="rgba(180,197,255,0.6)" font-size="8" font-family="sans-serif">X</text>
  <line x1="108" y1="37" x2="108" y2="25" stroke="rgba(180,197,255,0.3)"/>
  <circle cx="108" cy="25" r="4" fill="none" stroke="rgba(180,197,255,0.4)"/>
  <circle cx="108" cy="25" r="1" fill="rgba(180,197,255,0.4)"/>
  <rect x="145" y="17" width="16" height="16" rx="2" fill="rgba(74,222,128,0.2)" stroke="rgba(74,222,128,0.4)"/>
  <text x="153" y="29" text-anchor="middle" fill="rgba(74,222,128,0.6)" font-size="8" font-family="sans-serif">Z</text>
  <circle cx="300" cy="45" r="35" stroke="rgba(255,255,255,0.15)" stroke-width="1"/>
  <ellipse cx="300" cy="45" rx="35" ry="10" stroke="rgba(255,255,255,0.1)" stroke-width="0.5" stroke-dasharray="3 2"/>
  <line x1="300" y1="10" x2="300" y2="80" stroke="rgba(255,255,255,0.1)" stroke-width="0.5"/>
  <line x1="300" y1="45" x2="322" y2="20" stroke="rgba(180,197,255,0.5)" stroke-width="1.5"/>
  <circle cx="322" cy="20" r="3" fill="#b4c5ff" opacity="0.7"/>
  <path d="M400 60Q415 30,430 45Q445 60,460 35Q475 10,490 45" stroke="rgba(74,222,128,0.3)" stroke-width="1.5" fill="none"/>
  <path d="M400 65Q420 80,440 55Q460 30,480 65" stroke="rgba(156,39,176,0.25)" stroke-width="1" fill="none"/>
  <circle cx="230" cy="30" r="2" fill="rgba(74,222,128,0.4)"/>
  <circle cx="245" cy="62" r="1.5" fill="rgba(180,197,255,0.4)"/>
  <circle cx="370" cy="35" r="2" fill="rgba(156,39,176,0.4)"/>
  <circle cx="450" cy="72" r="1.5" fill="rgba(66,165,245,0.4)"/>
</svg>