<svg xmlns="http://www.w3.org/2000/svg" viewBox="0 0 16 16" width="16" height="16">
  <title>xTil</title>
  <rect width="16" height="16" rx="3" fill="#faf6ee"/>
  <!-- At 16px, use simple geometric strokes — serifs don't survive -->
  <g fill="#b04a34" transform="matrix(1.4 0 0 1.4 -3.2 -3.2)">
    <!-- Thick down-right stroke -->
    <path d="M3.2 4.2 l1.9-0.4 l5.9 8 l1.8 0.4 l-0.2 0.6 l-3 0 l-3 0 l0.2-0.6 l1-0.3 l-4.4-6 l-1.3-0.4 Z"/>
    <!-- Thin up-right stroke -->
    <path d="M12.8 4.2 l-0.2 0.6 l-0.9 0.28 l-2.35 3.22 l-0.55-0.75 l1.95-2.65 l-0.6-0.26 l0.2-0.6 l2.45 0 Z"/>
    <path d="M4.8 11.8 l-0.2 0.6 l-2.35 0 l-0.2-0.6 l0.9-0.28 l2.3-3.12 l0.55 0.75 l-1.95 2.65 Z"/>
  </g>
</svg>
