<svg xmlns="http://www.w3.org/2000/svg" viewBox="0 0 24 24" width="24" height="24">
  <title>xTil</title>
  <rect width="24" height="24" rx="4.5" fill="#faf6ee"/>
  <g fill="#b04a34" transform="matrix(1.4 0 0 1.4 -4.8 -4.8)">
    <path d="M5 6 l2.4 0 q0.6 0 1.1 0.7 l7.1 9.6 q0.5 0.7 1.1 0.8 l1.3 0.3 l0 0.4 l-3.8 0 l-3.8 0 l0-0.4 l1.2-0.3 q0.7-0.2 0.3-0.6 l-6.8-9.2 q-0.4-0.5 -0.9-0.6 Z"/>
    <path d="M18.2 6 l0 0.4 l-1.1 0.3 q-0.6 0.2 -1.2 1 l-2.9 3.9 l-0.6-0.8 l2.7-3.7 q0.9-1.2 0.4-1.5 l-0.9-0.2 l0-0.4 l2.3 0 Z"/>
    <path d="M7.9 17.6 l0 0.4 l-2.3 0 l-0.9-0.2 l0-0.4 l1.2-0.3 q0.6-0.2 1.2-1 l2.95-4 l0.62 0.85 l-2.72 3.7 q-0.85 1.15 -0.32 1.5 Z"/>
  </g>
</svg>
