<svg xmlns="http://www.w3.org/2000/svg" viewBox="0 0 48 48" width="48" height="48">
  <title>xTil</title>
  <rect width="48" height="48" rx="9" fill="#faf6ee"/>
  <g fill="#b04a34" transform="matrix(1.4 0 0 1.4 -9.6 -9.6)">
    <path d="M12.1 11.8 l3.15-0.85 q1.5 0 2.75 1.6 l12.6 17.1 q1.4 2 2.85 2.4 l3.15 0.82 l-0.3 1 l-7.6-0.15 l-7.4 0.15 l0.3-1 l2.1-0.6 q1.72-0.5 1.28-1.12 l-11.8-16.2 q-0.98-1.35 -2.25-1.7 l-2.78-0.75 Z"/>
    <path d="M35.9 11.8 l-0.3 1.05 l-2.02 0.56 q-1.35 0.4 -2.75 2.33 l-5.77 7.8 l-1.05-1.5 l5.25-7.12 q1.72-2.32 0.94-2.82 l-1.73-0.75 l0.3-1.05 l3.9 0.15 Z"/>
    <path d="M16.2 30.9 l-0.3 1.05 l-4.05 0.15 l-1.73-0.15 l0.3-1.05 l2.18-0.56 q1.5-0.4 2.93-2.32 l5.8-7.9 l1.08 1.5 l-5.43 7.4 q-1.57 2.13 -0.83 2.7 Z"/>
  </g>
</svg>
