<svg xmlns="http://www.w3.org/2000/svg" viewBox="0 0 32 32" width="32" height="32">
  <title>xTil</title>
  <rect width="32" height="32" rx="6" fill="#faf6ee"/>
  <g fill="#b04a34" transform="matrix(1.4 0 0 1.4 -6.4 -6.4)">
    <path d="M8.1 7.9 l2.1-0.6 q1 0 1.8 1.05 l8.4 11.4 q0.95 1.33 1.9 1.6 l2.1 0.55 l-0.2 0.68 l-5.05-0.1 l-4.95 0.1 l0.2-0.68 l1.4-0.4 q1.15-0.33 0.85-0.75 l-7.88-10.8 q-0.65-0.9 -1.5-1.13 l-1.85-0.5 Z"/>
    <path d="M23.95 7.9 l-0.2 0.7 l-1.35 0.38 q-0.9 0.28 -1.83 1.55 l-3.85 5.2 l-0.7-1 l3.5-4.75 q1.15-1.55 0.63-1.88 l-1.15-0.5 l0.2-0.7 l2.6 0.1 Z"/>
    <path d="M10.8 20.6 l-0.2 0.7 l-2.7 0.1 l-1.15-0.1 l0.2-0.7 l1.45-0.38 q1-0.28 1.95-1.55 l3.88-5.25 l0.73 1 l-3.63 4.93 q-1.05 1.43 -0.55 1.8 Z"/>
  </g>
</svg>
