<svg xmlns="http://www.w3.org/2000/svg" viewBox="0 0 128 128" width="128" height="128">
  <title>xTil</title>
  <rect width="128" height="128" rx="24" fill="#faf6ee"/>
  <g fill="#b04a34" transform="matrix(1.4 0 0 1.4 -25.6 -25.6)">
    <path d="M32.2 31.5 l8.4-2.3 q4 0 7.3 4.2 l33.6 45.6 q3.8 5.3 7.6 6.4 l8.4 2.2 l-0.8 2.7 l-20.2-0.4 l-19.8 0.4 l0.8-2.7 l5.6-1.6 q4.6-1.3 3.4-3 l-31.5-43.2 q-2.6-3.6 -6-4.5 l-7.4-2 Z"/>
    <path d="M95.8 31.5 l-0.8 2.8 l-5.4 1.5 q-3.6 1.1 -7.3 6.2 l-15.4 20.8 l-2.8-4 l14-19 q4.6-6.2 2.5-7.5 l-4.6-2 l0.8-2.8 l10.4 0.4 Z"/>
    <path d="M43.2 82.5 l-0.8 2.8 l-10.8 0.4 l-4.6-0.4 l0.8-2.8 l5.8-1.5 q4-1.1 7.8-6.2 l15.5-21 l2.9 4 l-14.5 19.7 q-4.2 5.7 -2.2 7.2 Z"/>
  </g>
</svg>
